<?xml version="1.0" encoding="utf-8"?>
<!-- Uploaded to: SVG Repo, www.svgrepo.com, Generator: SVG Repo Mixer Tools -->
<svg width="800px" height="800px" viewBox="0 0 20 20" xmlns="http://www.w3.org/2000/svg">
  <g id="hospital" transform="translate(-2 -2)">
    <path id="secondary" fill="#2ca9bc" d="M14,3H4A1,1,0,0,0,3,4V21H7V15h4v6h4V4A1,1,0,0,0,14,3Z"/>
    <path id="primary" d="M9,7v4m2-2H7m4,6H7v6h4ZM15,4a1,1,0,0,0-1-1H4A1,1,0,0,0,3,4V21H15Zm0,0a1,1,0,0,0-1-1H4A1,1,0,0,0,3,4V21H15Zm0,17h6V7a1,1,0,0,0-1-1H15Zm0,0h6V7a1,1,0,0,0-1-1H15Z" fill="none" stroke="#000000" stroke-linecap="round" stroke-linejoin="round" stroke-width="2"/>
  </g>
</svg>